<?xml version="1.0" encoding="utf-8"?>
<!-- Generator: Adobe Illustrator 28.3.0, SVG Export Plug-In . SVG Version: 6.00 Build 0)  -->
<svg version="1.1" id="レイヤー_1" xmlns="http://www.w3.org/2000/svg" xmlns:xlink="http://www.w3.org/1999/xlink" x="0px"
	 y="0px" viewBox="0 0 1500 500" style="enable-background:new 0 0 1500 500;" xml:space="preserve">
<style type="text/css">
	.st0{fill:#007436;}
	.st1{fill:#FFFFFF;}
</style>
<rect class="st0" width="1500" height="500"/>
<g>
	<path class="st1" d="M349.7,179.2c4.1,37.2,11.5,98.2,15.8,128.4c0.7,5.5,3.1,13.9,4.3,17.8c0,0.2,0.2,0.5,0.2,1
		c0,3.1-6.2,5-11.8,5c-4.3,0-8.4-1.2-8.6-4.1c-0.5-6.7-0.5-10.6-1.2-17.8c-3.4-28.8-9.4-85.7-13.2-124.6
		c-24.2,49.9-50.6,110.6-50.6,115.2c-0.2,4.1-7,7-12.5,7c-3.6,0-6.7-1-7.4-3.6c-1.7-5-4.1-12-5-13.9c-9.4-22.3-28.8-69.8-41-102.2
		c-3.4,39.4-8.9,88.1-13.2,122.4c-0.7,5.8-1,11-1.4,17.3c-0.2,2.9-6,4.6-11.3,4.6c-4.6,0-8.4-1.2-8.4-3.6v-0.5
		c8.4-28.8,20.2-150,20.2-151c0-2.4-0.2-4.1-0.2-5.8c0-0.7,0-1.7,0.2-2.4c0.7-3.8,8.2-7.2,14.2-7.2c4.6,0,5.3,0.2,8.6,8.6
		c14.9,38.6,34.1,87.4,46.8,115.4c15.1-37.2,35-82.6,51.6-116.9c2.2-4.3,3.1-9.4,8.6-9.4c5,0,16.6,4.8,16.6,8.4
		c0,3.1-1.2,6-1.2,10.1V179.2z"/>
	<path class="st1" d="M399.8,369.3c-6.2,0-14.2-0.5-21.6-6.5c-0.7-0.7-1.2-1.7-1.2-3.1c0-4.6,3.8-11.8,7.9-11.8c1,0,2.2,0.5,3.1,1.7
		c4.1,4.3,9.1,4.6,13.4,4.6c5,0,10.1-3.4,14.6-13.2l10.6-22.1l-35-79.4c-2.2-4.8-7-14.4-9.8-19.4c-0.2-0.5-0.5-1-0.5-1.4
		c0-2.6,4.8-3.8,9.6-3.8c4.3,0,8.6,1,9.4,3.1c2.2,5.8,4.6,11.8,7.2,17.8l27.8,64.6l29.5-62.2c3.1-6.5,6.2-14.9,8.6-22.3
		c0.5-1.4,2.2-2.2,4.1-2.2c4.8,0,11.8,4.1,11.8,9.1c0,1-0.2,1.9-0.7,2.9c-2.6,4.8-6.5,12-9.4,17.8l-50.6,106.3
		c-6.5,13.4-13.9,19.7-26.4,19.7H399.8z"/>
	<path class="st1" d="M665.8,325.8c0.5-6.7,1.2-11.5,1.2-26.2c-11.3,23-36.5,34.3-58.1,34.3c-43.2,0-75.6-20.4-75.6-74.9
		c0-53,35.5-100.3,84.5-100.3c28.1,0,43.9,7.9,54,20.4c0.7,0.7,1,1.9,1,2.9c0,4.8-5.3,11.5-9.4,11.5c-1.2,0-2.4-0.7-3.4-2.2
		c-0.7-1.2-10.8-17.8-42.2-17.8c-38.2,0-67.7,38.2-67.7,85.4c0,44.4,22.3,59.8,58.8,59.8c31.2,0,59-25.4,59-62.9
		c0-0.5-0.2-0.7-1-0.7l-27.4,1.9c-5.5,0.5-13,1.2-18,1.9h-0.5c-4.6,0-9.1-7.7-9.1-12.5c0-1.9,0.7-3.4,2.9-3.4h3.4
		c5.3,0,12.7-0.2,16.8-0.5l29.8-1.7c2.6-0.2,5.5-1,8.4-1c3.4,0,12,7.9,12,11.5c0,2.2-2.2,3.4-2.2,6.7v48.2c0,3.8,0.5,17,0.5,21.6
		c0,2.2-2.6,3.1-5.8,3.1c-5.3,0-12-2.4-12-5.3V325.8z"/>
	<path class="st1" d="M812.6,220.2c-2.2,13.9-3.1,51.6-3.1,63.4c0,7,0,25,8.4,37.9c0.2,0.5,0.5,1,0.5,1.4c0,3.6-5.3,10.1-10.6,10.1
		c-7.4,0-11.8-18.2-13-31.4c-12,22.6-29.5,32.6-47.5,32.6c-23.3,0-38.6-16.1-38.6-46.3c0-40.8,29.8-74.6,59.3-74.6
		c11.3,0,20.9,4.8,26.4,15.8v-13.2c0-1.7,2.2-2.4,5-2.4c5.5,0,13.2,2.4,13.2,6.2V220.2z M790.1,240.9c-0.7,0-1.2-0.2-1.7-1
		c-5.5-9.1-13.2-12.7-20.4-12.7c-19.7,0-43,25.4-43,59.5c0,24.2,9.4,33.1,22.1,33.1c22.8,0,44.9-24.2,46.6-59.8
		c0.2-4.6,0.2-13.4,0.5-21.4C793,239.9,791.3,240.9,790.1,240.9z"/>
	<path class="st1" d="M850.8,241.8c0-4.6-0.7-20.2-0.7-25.7c0-1.7,1.9-2.4,4.8-2.4c5,0,12.7,2.6,12.7,6.7c0,3.4-0.7,7-0.7,12.2
		c6.2-10.6,18.5-19.4,35-19.4c14.2,0,27.6,8.9,27.6,14.4c0,5-4.6,12.5-8.6,12.5c-1.2,0-2.4-0.7-3.4-2.4c-3.1-6-11.5-8.9-16.3-8.9
		c-13.4,0-25.7,8.2-31.2,25.4c-3.4,10.8-3.4,22.8-3.4,50.2c0,9.8,1.2,19.9,1.2,25.4c0,1.7-1.9,2.4-4.8,2.4c-5,0-12.7-2.6-12.7-6.7
		c0-3.8,0.5-17.8,0.5-21.1V241.8z"/>
	<path class="st1" d="M1026.5,187.6c0-9.8-1-19.9-1-25.4c0-1.7,2.2-2.4,4.8-2.4c5,0,12.5,2.6,12.5,6.7c0,3.8-0.5,13-0.5,21.4v97.7
		c0,13.9,2.9,28.6,8.2,35c0.2,0.5,0.5,1,0.5,1.7c0,3.8-5.5,10.6-10.6,10.6c-7.7,0-13-23.5-13.2-31.2c-13.9,23-29.3,32.6-48,32.6
		c-23.3,0-39.4-17.5-39.4-49c0-37.9,28.6-72,59.8-72c12,0,21.8,5,26.9,12.5V187.6z M1026.5,238.5c-0.7,0.7-1.7,1-2.4,1
		s-1.4-0.2-2.2-1.2c-4.8-6.7-13.7-11-22.1-11c-23.8,0-43.7,29.5-43.7,57.4c0,23.5,9.4,35.3,23,35.3c19.9,0,47.3-25.7,47.3-56.2
		V238.5z"/>
	<path class="st1" d="M1089.8,282.9v2.4c0,20.9,12,34.8,28.1,34.8c20.4,0,37.7-6.5,50.6-20.2c2.2-2.6,4.3-3.6,5.5-3.6
		c1.4,0,2.4,1.2,2.4,2.9c0,5.5-18.5,35-58.6,35c-24.7,0-43.7-19.4-43.7-51.1v-3.4c-2.9-2.2-5-5.3-5-7.7c0-1.7,1.2-3.1,4.6-3.1
		c0.2,0,1.7-0.2,2.2-0.2c4.3-23,28.8-55.4,60-55.4c29.8,0,39.8,17.8,39.8,35c0,16.6-1.7,20.4-23,27.1c-14.4,4.6-34.6,7.4-59.8,7.4
		H1089.8z M1096.6,269.4c23.8,0,39.1-3.4,49.7-6.2c11.5-3.4,13.7-6.7,13.7-15.1c0-13.9-7.7-20.9-24.2-20.9
		c-23.5,0-40.3,25.2-43.9,42.2H1096.6z"/>
	<path class="st1" d="M1287.4,325.8c0.2-3.8,0.5-18,0.5-23.5v-42.7c0-18.7-3.8-31.2-19.7-31.2c-16.6,0-34.6,8.6-41.8,32.6
		c-3.6,12-3.6,32.4-3.8,43.7v3.8c0,7.7,0.5,15.4,0.7,21.6c0,1.7-1.9,2.4-4.6,2.4c-5,0-12.5-2.6-12.5-6.7c0-3.8,0.5-20.2,0.5-23.5
		v-59.8c0-4.6-0.7-20.2-0.7-25.7c0-1.7,1.9-2.4,4.6-2.4c5,0,12.5,2.6,12.5,6.7c0,0-0.5,12.2-0.5,18.5c10.3-16.8,28.1-26.2,45.6-26.2
		c31,0,35.5,25.4,35.5,45.1v46.1c0,2.9,0.7,19.9,0.7,25.4c0,1.7-1.9,2.4-4.6,2.4c-5.3,0-12.5-2.6-12.5-6.5V325.8z"/>
</g>
</svg>
